<?xml version="1.0" standalone="no"?>
<!DOCTYPE svg PUBLIC "-//W3C//DTD SVG 20010904//EN"
 "http://www.w3.org/TR/2001/REC-SVG-20010904/DTD/svg10.dtd">
<svg version="1.0" xmlns="http://www.w3.org/2000/svg"
 width="740.000000pt" height="740.000000pt" viewBox="0 0 740.000000 740.000000"
 preserveAspectRatio="xMidYMid meet">
<metadata>
Created by potrace 1.14, written by Peter Selinger 2001-2017
</metadata>
<g transform="translate(0.000000,740.000000) scale(0.100000,-0.100000)"
fill="#000000" stroke="none">
<path d="M0 3700 l0 -3700 3700 0 3700 0 0 3700 0 3700 -3700 0 -3700 0 0
-3700z m3905 1615 c88 -8 230 -24 315 -35 678 -88 719 -95 891 -151 300 -97
549 -298 653 -529 25 -57 43 -153 49 -277 4 -63 2 -73 -12 -73 -10 0 -22 -5
-28 -11 -9 -9 -27 -9 -70 -1 -32 6 -116 14 -188 17 -71 3 -186 12 -255 20 -69
8 -278 21 -465 30 -187 8 -441 20 -565 26 -275 15 -861 15 -1105 1 -251 -15
-611 -39 -865 -59 -118 -9 -317 -19 -442 -22 -200 -5 -227 -4 -223 9 2 8 7 42
10 75 26 246 223 556 450 707 247 163 600 262 1050 292 126 8 647 -4 800 -19z
m518 -1259 c181 -35 266 -112 313 -281 18 -65 18 -274 0 -340 -40 -151 -129
-238 -267 -263 -44 -8 -377 2 -385 11 -1 1 -7 148 -13 327 -6 179 -13 378 -16
443 l-5 117 149 0 c88 0 180 -6 224 -14z m839 3 c202 -43 318 -207 318 -448 0
-149 -43 -274 -120 -351 -23 -23 -72 -56 -108 -73 -63 -30 -74 -32 -177 -32
-98 0 -116 3 -167 27 -80 37 -122 71 -161 131 -49 75 -68 139 -74 252 -9 164
26 288 104 375 97 108 235 151 385 119z m-1744 -24 l22 -5 0 -419 c0 -354 -2
-420 -14 -424 -8 -3 -41 -9 -74 -13 l-60 -6 -6 93 c-9 145 -33 783 -30 790 3
5 114 -6 162 -16z m-1073 -2 c66 -22 128 -85 143 -145 38 -150 -23 -242 -188
-284 l-67 -18 56 -42 c85 -63 152 -139 225 -251 36 -56 66 -107 66 -113 0 -6
-49 -10 -134 -10 l-134 0 -51 128 c-29 71 -65 144 -81 164 -31 37 -84 62 -152
72 l-38 5 0 -42 c1 -23 7 -105 14 -182 8 -77 12 -143 10 -146 -5 -9 -187 2
-198 12 -9 8 13 561 30 781 l7 77 81 4 c242 10 363 7 411 -10z m875 -74 l0
-91 -42 6 c-70 9 -398 29 -403 24 -6 -5 13 -209 19 -215 2 -2 72 0 156 6 83 6
171 11 196 11 l44 0 0 -70 0 -70 -37 0 c-21 0 -116 7 -212 15 -96 8 -176 13
-179 10 -2 -2 -1 -63 3 -134 l7 -131 38 0 c33 0 254 20 383 35 l47 6 0 -101 0
-100 -300 0 c-232 0 -302 3 -304 13 -3 6 -9 183 -15 392 -7 209 -14 404 -17
433 l-6 52 311 0 311 0 0 -91z m960 -951 c19 -6 45 -18 57 -26 25 -15 103
-127 103 -146 0 -10 -121 -88 -145 -93 -5 -1 -19 16 -30 39 -30 60 -64 81
-138 86 -53 3 -67 0 -97 -20 -120 -81 -144 -364 -45 -509 39 -55 100 -82 175
-77 82 6 128 42 154 122 10 31 17 58 15 60 -2 2 -42 -2 -89 -10 -47 -7 -86
-14 -87 -14 -2 0 -3 27 -3 60 0 40 4 62 13 65 15 5 290 35 293 32 1 -1 10 -67
19 -146 l16 -143 -28 -31 c-54 -59 -88 -88 -138 -115 -46 -25 -59 -27 -165
-27 -110 0 -118 1 -182 33 -164 80 -250 252 -235 467 18 260 200 428 442 409
33 -3 76 -10 95 -16z m-2167 -12 c101 -36 147 -101 147 -206 0 -70 -34 -149
-75 -176 l-24 -16 47 -31 c71 -48 94 -101 90 -204 -6 -109 -38 -164 -121 -207
-48 -25 -72 -30 -154 -34 -88 -4 -358 19 -370 32 -5 5 12 537 23 733 l6 102
66 6 c37 3 74 8 82 9 45 10 249 4 283 -8z m379 -52 c4 -3 5 -122 1 -264 -7
-290 -1 -329 56 -363 37 -22 128 -23 159 -1 45 31 47 45 52 359 l5 300 108 14
c59 8 109 12 111 10 8 -10 -26 -512 -40 -584 -30 -151 -84 -236 -179 -281 -42
-20 -66 -24 -146 -24 -273 0 -308 75 -309 651 0 130 3 238 6 241 5 5 153 -44
176 -58z m1041 33 c73 -43 101 -94 106 -188 5 -127 -41 -187 -174 -225 -36
-10 -65 -21 -65 -24 0 -3 11 -12 24 -20 72 -45 162 -148 234 -270 79 -132 85
-121 -63 -118 l-128 3 -45 120 c-24 66 -57 139 -73 161 -31 46 -86 74 -144 74
-42 0 -41 8 -20 -215 7 -82 12 -151 11 -153 -2 -1 -47 0 -101 4 l-97 7 6 96
c3 53 11 202 16 331 5 129 13 281 16 337 l6 102 87 4 c47 2 147 3 221 3 129
-1 137 -2 183 -29z m1547 -58 l0 -91 -62 6 c-137 13 -350 27 -354 23 -2 -2 -1
-50 4 -108 l7 -104 55 0 c30 0 115 4 188 9 l132 8 0 -77 0 -76 -32 5 c-18 3
-91 10 -163 16 -71 6 -148 13 -169 16 l-39 5 6 -137 c3 -75 8 -138 10 -140 2
-3 270 23 400 39 l27 4 0 -99 0 -98 -280 0 -280 0 0 47 c0 59 -18 590 -25 736
l-5 107 290 0 290 0 0 -91z m550 63 c53 -28 76 -53 101 -107 21 -45 25 -138 8
-182 -22 -60 -91 -111 -183 -134 -25 -6 -46 -14 -46 -18 0 -3 16 -17 35 -30
64 -44 153 -150 220 -261 36 -61 65 -112 65 -115 0 -3 -57 -5 -127 -5 l-128 0
-44 120 c-24 66 -55 138 -70 160 -31 48 -90 80 -149 80 -39 0 -42 -2 -38 -22
8 -39 29 -338 24 -343 -3 -3 -46 -2 -96 1 l-92 7 0 36 c0 61 30 702 36 768 l6
62 81 4 c45 2 143 3 217 3 121 -1 140 -3 180 -24z m-3860 -1171 c113 -6 372
-21 575 -35 204 -14 505 -32 670 -41 165 -9 347 -20 405 -25 212 -19 348 -22
490 -11 206 16 407 29 700 46 420 24 741 44 815 51 39 3 156 10 260 15 105 5
216 12 248 15 66 7 69 1 32 -54 -14 -20 -25 -40 -25 -45 0 -20 -77 -107 -114
-128 -22 -12 -59 -37 -82 -56 -22 -18 -58 -40 -80 -49 -21 -8 -61 -26 -89 -39
-51 -23 -187 -63 -372 -110 -519 -130 -1536 -164 -2478 -84 -460 39 -773 114
-978 234 -95 56 -200 157 -227 218 -11 26 -25 49 -30 52 -6 3 -10 20 -10 37 0
30 0 30 43 24 23 -3 134 -10 247 -15z"/>
<path d="M4280 3660 l0 -260 26 -6 c36 -9 160 5 206 23 49 20 74 67 88 165 12
80 6 159 -16 229 -27 84 -76 109 -215 109 l-89 0 0 -260z"/>
<path d="M5162 3920 c-54 -8 -90 -35 -122 -91 -22 -39 -25 -55 -25 -149 0 -89
4 -111 23 -147 49 -93 152 -127 242 -81 36 18 51 35 74 80 25 51 28 69 28 148
0 77 -3 97 -26 142 -14 29 -37 61 -50 70 -33 24 -92 35 -144 28z"/>
<path d="M2150 3855 l0 -97 109 4 c99 3 112 6 135 27 36 34 36 98 1 131 -22
21 -37 24 -135 28 l-110 5 0 -98z"/>
<path d="M1847 2873 c-4 -3 -7 -46 -7 -95 l0 -88 94 0 c51 0 108 5 126 11 71
25 74 136 4 165 -34 14 -205 20 -217 7z"/>
<path d="M1860 2490 c-1 -5 -1 -44 -1 -85 0 -129 -1 -122 24 -119 12 1 66 3
120 3 90 1 100 3 122 26 20 19 25 34 25 72 -1 57 -14 77 -63 98 -42 17 -227
21 -227 5z"/>
<path d="M3220 2810 l0 -90 95 0 c52 0 105 5 118 11 48 22 62 97 26 143 -20
25 -24 26 -130 26 l-109 0 0 -90z"/>
<path d="M5330 2809 l0 -91 105 4 c93 3 107 6 127 26 33 32 32 106 -1 133 -19
16 -40 19 -127 19 l-104 0 0 -91z"/>
</g>
</svg>
